<mxfile host="app.diagrams.net" modified="2023-04-26T07:54:28.548Z" agent="Mozilla/5.0 (X11; Linux x86_64) AppleWebKit/537.36 (KHTML, like Gecko) Chrome/110.0.0.0 Safari/537.36" version="21.2.2" etag="RDSNnDpk0wZu_CEHArn2" type="github">
  <diagram name="第 1 页" id="_TgLBj13VzoD7ilWG4FC">
    <mxGraphModel>
      <root>
        <mxCell id="0" />
        <mxCell id="1" parent="0" />
      </root>
    </mxGraphModel>
  </diagram>
</mxfile>
